<svg xmlns="http://www.w3.org/2000/svg" version="1.0" width="400.000000pt" height="400.000000pt" viewBox="0 0 400.000000 400.000000" preserveAspectRatio="xMidYMid meet">

<g transform="translate(0.000000,400.000000) scale(0.100000,-0.100000)" fill="#8f8f8f" stroke="none">
<path d="M243 3964 c-76 -45 -161 -130 -207 -208 l-36 -60 0 -1696 0 -1695 36 -62 c45 -76 130 -161 208 -207 l60 -36 1696 0 1696 0 60 36 c78 46 163 131 208 207 l36 62 0 1691 c0 931 -3 1694 -8 1696 -4 2 -23 29 -42 61 -42 70 -136 162 -205 202 -27 16 -51 33 -53 37 -2 4 -765 8 -1696 8 l-1691 0 -62 -36z m1229 -856 c91 -89 163 -152 171 -150 4 1 7 -7 7 -19 0 -11 -4 -18 -9 -14 -6 3 -13 -1 -18 -9 -9 -15 -118 -138 -201 -225 -91 -96 -99 -105 -117 -133 -9 -15 -21 -25 -26 -22 -5 3 -9 1 -9 -4 0 -8 -21 -32 -144 -164 -32 -35 -88 -94 -123 -133 -36 -38 -90 -98 -121 -131 -124 -134 -120 -129 -107 -147 7 -9 15 -14 18 -10 4 3 7 -1 7 -10 0 -10 3 -17 8 -17 11 0 95 -76 384 -345 241 -225 280 -260 298 -270 10 -5 18 -12 17 -15 -1 -3 25 -29 58 -59 33 -29 81 -71 107 -94 26 -23 47 -49 47 -57 0 -8 -30 -48 -68 -87 -38 -40 -68 -73 -66 -73 1 0 -12 -16 -31 -35 -18 -19 -36 -35 -40 -35 -4 0 -33 24 -64 53 -31 28 -110 102 -175 162 -66 61 -131 121 -145 135 -14 13 -54 49 -90 80 -36 30 -103 91 -149 135 -47 44 -97 91 -112 105 -15 14 -71 65 -123 114 -53 50 -107 97 -119 105 -12 9 -64 58 -116 109 -51 50 -97 92 -102 92 -20 0 -4 21 90 120 55 58 97 109 94 115 -4 5 -3 7 1 3 4 -4 29 17 54 45 25 29 51 57 57 62 7 6 50 52 96 104 46 52 92 104 104 116 29 31 149 160 214 231 31 33 84 91 119 127 34 37 62 72 62 79 0 6 3 9 6 5 3 -3 27 18 52 46 25 29 58 65 74 80 15 15 35 41 45 57 9 17 20 30 24 30 4 0 31 -24 61 -52z m1149 10 c18 -24 40 -50 50 -58 9 -8 37 -38 62 -67 25 -28 48 -49 51 -46 3 4 6 2 6 -4 0 -15 97 -123 104 -116 3 4 6 1 6 -5 0 -6 30 -44 68 -84 37 -39 96 -103 132 -142 36 -38 74 -79 85 -91 12 -12 58 -64 104 -116 46 -52 89 -98 96 -104 6 -5 32 -33 57 -62 25 -28 50 -49 54 -45 4 4 5 2 1 -3 -3 -6 38 -56 91 -112 53 -56 97 -106 97 -110 1 -4 -17 -23 -40 -42 -22 -18 -67 -61 -99 -95 -33 -33 -69 -68 -82 -76 -30 -21 -288 -257 -398 -365 -23 -22 -70 -65 -106 -96 -36 -30 -76 -66 -90 -79 -14 -14 -79 -74 -145 -135 -65 -60 -144 -134 -175 -162 -31 -29 -60 -53 -64 -53 -4 0 -22 16 -40 35 -19 19 -32 35 -31 35 2 0 -28 33 -66 72 -38 40 -69 79 -69 86 0 7 16 28 35 46 19 19 35 31 35 28 0 -3 6 1 13 10 6 8 37 37 67 64 30 27 56 54 58 59 2 6 12 15 23 20 18 10 76 63 298 270 274 257 372 345 384 345 4 0 7 7 7 17 0 9 3 13 7 10 3 -4 11 1 18 10 13 18 17 13 -107 147 -31 33 -85 93 -121 131 -35 39 -91 98 -123 133 -123 132 -144 156 -144 164 0 5 -4 7 -9 4 -5 -3 -17 7 -26 22 -19 29 -31 43 -129 145 -37 38 -66 73 -66 79 0 5 -4 6 -10 3 -5 -3 -10 -3 -10 2 0 11 -112 138 -120 136 -3 -1 -6 7 -7 17 -1 11 1 19 5 18 8 -2 93 74 166 148 28 29 54 52 58 53 3 0 21 -18 39 -41z m-481 -438 c52 -15 130 -79 165 -134 29 -48 30 -53 30 -175 0 -123 -1 -128 -33 -193 -19 -37 -42 -77 -53 -89 -10 -12 -16 -26 -12 -32 3 -6 1 -7 -5 -3 -7 4 -12 3 -12 -2 0 -5 -13 -28 -29 -53 -34 -52 -65 -150 -78 -251 l-5 -38 -125 0 -126 0 5 84 c2 47 9 90 15 98 6 7 13 26 17 42 4 17 14 45 21 63 8 18 14 36 15 38 0 3 7 13 16 23 27 30 104 154 104 168 0 8 4 14 9 14 15 0 34 98 28 142 -7 55 -36 83 -87 83 -58 0 -80 -27 -87 -104 l-6 -61 -130 0 -130 0 7 70 c4 39 14 92 22 118 30 98 119 181 217 202 50 11 197 5 247 -10z m-29 -1220 l0 -125 -125 -3 -126 -3 0 131 0 131 126 -3 125 -3 0 -125z" fill="#8f8f8f"/>
</g>
</svg>