<?xml version="1.0" encoding="UTF-8"?>
<svg xmlns="http://www.w3.org/2000/svg" xmlns:xlink="http://www.w3.org/1999/xlink" width="100px" height="100px" viewBox="0 0 100 100" version="1.1">
<g id="surface1">
<path style=" stroke:none;fill-rule:nonzero;fill:rgb(56.078431%,56.078431%,56.078431%);fill-opacity:1;" d="M 6.074219 0.898438 C 4.175781 2.023438 2.050781 4.148438 0.898438 6.101562 L 0 7.601562 L 0 92.375 L 0.898438 93.925781 C 2.023438 95.824219 4.148438 97.949219 6.101562 99.101562 L 7.601562 100 L 92.398438 100 L 93.898438 99.101562 C 95.851562 97.949219 97.976562 95.824219 99.101562 93.925781 L 100 92.375 L 100 50.101562 C 100 26.824219 99.925781 7.75 99.800781 7.699219 C 99.699219 7.648438 99.226562 6.976562 98.75 6.175781 C 97.699219 4.425781 95.351562 2.125 93.625 1.125 C 92.949219 0.726562 92.351562 0.300781 92.300781 0.199219 C 92.25 0.101562 73.175781 0 49.898438 0 L 7.625 0 Z M 36.800781 22.300781 C 39.074219 24.523438 40.875 26.101562 41.074219 26.050781 C 41.175781 26.023438 41.25 26.226562 41.25 26.523438 C 41.25 26.800781 41.148438 26.976562 41.023438 26.875 C 40.875 26.800781 40.699219 26.898438 40.574219 27.101562 C 40.351562 27.476562 37.625 30.550781 35.550781 32.726562 C 33.273438 35.125 33.074219 35.351562 32.625 36.050781 C 32.398438 36.425781 32.101562 36.675781 31.976562 36.601562 C 31.851562 36.523438 31.75 36.574219 31.75 36.699219 C 31.75 36.898438 31.226562 37.5 28.148438 40.800781 C 27.351562 41.675781 25.949219 43.148438 25.074219 44.125 C 24.175781 45.074219 22.824219 46.574219 22.050781 47.398438 C 18.949219 50.75 19.050781 50.625 19.375 51.074219 C 19.550781 51.300781 19.75 51.425781 19.824219 51.324219 C 19.925781 51.25 20 51.351562 20 51.574219 C 20 51.824219 20.074219 52 20.199219 52 C 20.476562 52 22.574219 53.898438 29.800781 60.625 C 35.824219 66.25 36.800781 67.125 37.25 67.375 C 37.5 67.5 37.699219 67.675781 37.675781 67.75 C 37.648438 67.824219 38.300781 68.476562 39.125 69.226562 C 39.949219 69.949219 41.148438 71 41.800781 71.574219 C 42.449219 72.148438 42.976562 72.800781 42.976562 73 C 42.976562 73.199219 42.226562 74.199219 41.273438 75.175781 C 40.324219 76.175781 39.574219 77 39.625 77 C 39.648438 77 39.324219 77.398438 38.851562 77.875 C 38.398438 78.351562 37.949219 78.75 37.851562 78.75 C 37.75 78.75 37.023438 78.148438 36.25 77.425781 C 35.476562 76.726562 33.5 74.875 31.875 73.375 C 30.226562 71.851562 28.601562 70.351562 28.25 70 C 27.898438 69.675781 26.898438 68.773438 26 68 C 25.101562 67.25 23.425781 65.726562 22.273438 64.625 C 21.101562 63.523438 19.851562 62.351562 19.476562 62 C 19.101562 61.648438 17.699219 60.375 16.398438 59.148438 C 15.074219 57.898438 13.726562 56.726562 13.425781 56.523438 C 13.125 56.300781 11.824219 55.074219 10.523438 53.800781 C 9.25 52.550781 8.101562 51.5 7.976562 51.5 C 7.476562 51.5 7.875 50.976562 10.226562 48.5 C 11.601562 47.050781 12.648438 45.773438 12.574219 45.625 C 12.476562 45.5 12.5 45.449219 12.601562 45.550781 C 12.699219 45.648438 13.324219 45.125 13.949219 44.425781 C 14.574219 43.699219 15.226562 43 15.375 42.875 C 15.550781 42.726562 16.625 41.574219 17.773438 40.273438 C 18.925781 38.976562 20.074219 37.675781 20.375 37.375 C 21.101562 36.601562 24.101562 33.375 25.726562 31.601562 C 26.5 30.773438 27.824219 29.324219 28.699219 28.425781 C 29.550781 27.5 30.25 26.625 30.25 26.449219 C 30.25 26.300781 30.324219 26.226562 30.398438 26.324219 C 30.476562 26.398438 31.074219 25.875 31.699219 25.175781 C 32.324219 24.449219 33.148438 23.550781 33.550781 23.175781 C 33.925781 22.800781 34.425781 22.148438 34.675781 21.75 C 34.898438 21.324219 35.175781 21 35.273438 21 C 35.375 21 36.050781 21.601562 36.800781 22.300781 Z M 65.523438 22.050781 C 65.976562 22.648438 66.523438 23.300781 66.773438 23.5 C 67 23.699219 67.699219 24.449219 68.324219 25.175781 C 68.949219 25.875 69.523438 26.398438 69.601562 26.324219 C 69.675781 26.226562 69.75 26.273438 69.75 26.425781 C 69.75 26.800781 72.175781 29.5 72.351562 29.324219 C 72.425781 29.226562 72.5 29.300781 72.5 29.449219 C 72.5 29.601562 73.25 30.550781 74.199219 31.550781 C 75.125 32.523438 76.601562 34.125 77.5 35.101562 C 78.398438 36.050781 79.351562 37.074219 79.625 37.375 C 79.925781 37.675781 81.074219 38.976562 82.226562 40.273438 C 83.375 41.574219 84.449219 42.726562 84.625 42.875 C 84.773438 43 85.425781 43.699219 86.050781 44.425781 C 86.675781 45.125 87.300781 45.648438 87.398438 45.550781 C 87.5 45.449219 87.523438 45.5 87.425781 45.625 C 87.351562 45.773438 88.375 47.023438 89.699219 48.425781 C 91.023438 49.824219 92.125 51.074219 92.125 51.175781 C 92.148438 51.273438 91.699219 51.75 91.125 52.226562 C 90.574219 52.675781 89.449219 53.75 88.648438 54.601562 C 87.824219 55.425781 86.925781 56.300781 86.601562 56.5 C 85.851562 57.023438 79.398438 62.925781 76.648438 65.625 C 76.074219 66.175781 74.898438 67.25 74 68.023438 C 73.101562 68.773438 72.101562 69.675781 71.75 70 C 71.398438 70.351562 69.773438 71.851562 68.125 73.375 C 66.5 74.875 64.523438 76.726562 63.75 77.425781 C 62.976562 78.148438 62.25 78.75 62.148438 78.75 C 62.050781 78.75 61.601562 78.351562 61.148438 77.875 C 60.675781 77.398438 60.351562 77 60.375 77 C 60.425781 77 59.675781 76.175781 58.726562 75.199219 C 57.773438 74.199219 57 73.226562 57 73.050781 C 57 72.875 57.398438 72.351562 57.875 71.898438 C 58.351562 71.425781 58.75 71.125 58.75 71.199219 C 58.75 71.273438 58.898438 71.175781 59.074219 70.949219 C 59.226562 70.75 60 70.023438 60.75 69.351562 C 61.5 68.675781 62.148438 68 62.199219 67.875 C 62.25 67.726562 62.5 67.5 62.773438 67.375 C 63.226562 67.125 64.675781 65.800781 70.226562 60.625 C 77.074219 54.199219 79.523438 52 79.824219 52 C 79.925781 52 80 51.824219 80 51.574219 C 80 51.351562 80.074219 51.25 80.175781 51.324219 C 80.25 51.425781 80.449219 51.300781 80.625 51.074219 C 80.949219 50.625 81.050781 50.75 77.949219 47.398438 C 77.175781 46.574219 75.824219 45.074219 74.925781 44.125 C 74.050781 43.148438 72.648438 41.675781 71.851562 40.800781 C 68.773438 37.5 68.25 36.898438 68.25 36.699219 C 68.25 36.574219 68.148438 36.523438 68.023438 36.601562 C 67.898438 36.675781 67.601562 36.425781 67.375 36.050781 C 66.898438 35.324219 66.601562 34.976562 64.148438 32.425781 C 63.226562 31.476562 62.5 30.601562 62.5 30.449219 C 62.5 30.324219 62.398438 30.300781 62.25 30.375 C 62.125 30.449219 62 30.449219 62 30.324219 C 62 30.050781 59.199219 26.875 59 26.925781 C 58.925781 26.949219 58.851562 26.75 58.824219 26.5 C 58.800781 26.226562 58.851562 26.023438 58.949219 26.050781 C 59.148438 26.101562 61.273438 24.199219 63.101562 22.351562 C 63.800781 21.625 64.449219 21.050781 64.550781 21.023438 C 64.625 21.023438 65.074219 21.476562 65.523438 22.050781 Z M 53.5 33 C 54.800781 33.375 56.75 34.976562 57.625 36.351562 C 58.351562 37.550781 58.375 37.675781 58.375 40.726562 C 58.375 43.800781 58.351562 43.925781 57.550781 45.550781 C 57.074219 46.476562 56.5 47.476562 56.226562 47.773438 C 55.976562 48.074219 55.824219 48.425781 55.925781 48.574219 C 56 48.726562 55.949219 48.75 55.800781 48.648438 C 55.625 48.550781 55.5 48.574219 55.5 48.699219 C 55.5 48.824219 55.175781 49.398438 54.773438 50.023438 C 53.925781 51.324219 53.148438 53.773438 52.824219 56.300781 L 52.699219 57.25 L 46.425781 57.25 L 46.550781 55.148438 C 46.601562 53.976562 46.773438 52.898438 46.925781 52.699219 C 47.074219 52.523438 47.25 52.050781 47.351562 51.648438 C 47.449219 51.226562 47.699219 50.523438 47.875 50.074219 C 48.074219 49.625 48.226562 49.175781 48.25 49.125 C 48.25 49.050781 48.425781 48.800781 48.648438 48.550781 C 49.324219 47.800781 51.25 44.699219 51.25 44.351562 C 51.25 44.148438 51.351562 44 51.476562 44 C 51.851562 44 52.324219 41.550781 52.175781 40.449219 C 52 39.074219 51.273438 38.375 50 38.375 C 48.550781 38.375 48 39.050781 47.824219 40.976562 L 47.675781 42.5 L 41.175781 42.5 L 41.351562 40.75 C 41.449219 39.773438 41.699219 38.449219 41.898438 37.800781 C 42.648438 35.351562 44.875 33.273438 47.324219 32.75 C 48.574219 32.476562 52.25 32.625 53.5 33 Z M 52.773438 63.5 L 52.773438 66.625 L 49.648438 66.699219 L 46.5 66.773438 L 46.5 60.226562 L 49.648438 60.300781 L 52.773438 60.375 Z M 52.773438 63.5 "/>
</g>
</svg>
