<?xml version="1.0" encoding="UTF-8"?>
<svg xmlns="http://www.w3.org/2000/svg" xmlns:xlink="http://www.w3.org/1999/xlink" width="100" height="100" viewBox="0 0 100 100" version="1.1">
<g id="surface1">
<path style=" stroke:none;fill-rule:nonzero;fill:rgb(56.078431%,56.078431%,56.078431%);fill-opacity:1;" d="M 4.746094 0.703125 C 3.261719 1.582031 1.601562 3.242188 0.703125 4.765625 L 0 5.9375 L 0 94.042969 L 0.722656 95.292969 C 1.601562 96.738281 3.59375 98.710938 5.019531 99.472656 L 6.015625 100 L 21.308594 99.960938 L 36.621094 99.902344 L 37.070312 99.023438 C 37.480469 98.183594 37.5 97.988281 37.5 92.246094 C 37.5 89.003906 37.441406 86.308594 37.363281 86.269531 C 37.265625 86.230469 36.425781 86.308594 35.449219 86.464844 C 32.089844 86.992188 27.128906 86.367188 24.765625 85.136719 C 23.28125 84.355469 21.542969 82.65625 20.957031 81.445312 C 19.023438 77.34375 18.457031 76.308594 17.636719 75.292969 C 16.757812 74.21875 16.230469 73.75 14.375 72.460938 C 13.613281 71.933594 12.890625 70.9375 12.890625 70.429688 C 12.890625 69.667969 15.136719 69.492188 17.03125 70.136719 C 19.53125 70.976562 21.640625 72.832031 23.4375 75.78125 C 24.0625 76.835938 25.664062 78.457031 26.757812 79.140625 C 27.246094 79.453125 28.242188 79.882812 28.984375 80.117188 C 30.117188 80.449219 30.605469 80.507812 32.089844 80.390625 C 33.886719 80.273438 36.640625 79.648438 37.207031 79.21875 C 37.363281 79.101562 37.636719 78.457031 37.792969 77.773438 C 38.183594 76.09375 39.082031 74.238281 39.921875 73.300781 C 40.3125 72.871094 40.625 72.460938 40.625 72.402344 C 40.625 72.34375 39.863281 72.207031 38.925781 72.070312 C 35.175781 71.5625 32.675781 70.859375 29.726562 69.511719 C 25.117188 67.382812 21.992188 64.296875 20.15625 60.097656 C 18.652344 56.582031 17.988281 53.476562 17.832031 48.90625 C 17.617188 43.066406 18.710938 39.257812 21.796875 35.175781 L 22.890625 33.710938 L 22.460938 32.441406 C 22.148438 31.542969 21.992188 30.488281 21.933594 28.90625 C 21.816406 26.308594 22.050781 24.53125 22.8125 22.109375 L 23.359375 20.410156 L 24.6875 20.351562 C 25.488281 20.3125 26.445312 20.410156 27.109375 20.605469 C 29.277344 21.230469 33.105469 22.929688 35.253906 24.238281 L 37.441406 25.546875 L 39.375 25.078125 C 42.695312 24.257812 45.644531 23.964844 50 23.964844 C 54.375 23.964844 57.324219 24.277344 60.644531 25.078125 L 62.597656 25.566406 L 64.648438 24.335938 C 67.480469 22.617188 70.195312 21.347656 72.597656 20.625 C 73.515625 20.332031 75.214844 20.136719 75.878906 20.253906 C 76.542969 20.351562 76.5625 20.390625 77.148438 22.1875 C 77.460938 23.183594 77.832031 24.648438 77.949219 25.429688 C 78.261719 27.460938 78.066406 30.839844 77.539062 32.421875 L 77.109375 33.691406 L 78.203125 35.15625 C 80.957031 38.828125 82.226562 42.734375 82.226562 47.578125 C 82.226562 52.167969 81.425781 56.425781 79.902344 59.921875 C 78.007812 64.296875 75.175781 67.128906 70.410156 69.414062 C 67.519531 70.800781 65.039062 71.503906 60.996094 72.070312 C 60.097656 72.207031 59.375 72.382812 59.375 72.460938 C 59.375 72.539062 59.550781 72.753906 59.765625 72.949219 C 60.46875 73.59375 61.367188 75.175781 61.875 76.71875 L 62.382812 78.222656 L 62.5 88.515625 C 62.597656 98.59375 62.597656 98.808594 63.007812 99.355469 L 63.417969 99.902344 L 78.710938 99.960938 L 93.984375 100 L 94.980469 99.472656 C 96.40625 98.710938 98.398438 96.738281 99.277344 95.292969 L 100 94.042969 L 100 5.9375 L 99.296875 4.765625 C 98.398438 3.242188 96.738281 1.582031 95.253906 0.703125 L 94.042969 0 L 5.957031 0 Z M 4.746094 0.703125 "/>
</g>
</svg>
